<svg width="1196" height="153" xmlns="http://www.w3.org/2000/svg" xmlns:xlink="http://www.w3.org/1999/xlink" overflow="hidden"><defs><clipPath id="clip0"><rect x="10" y="215" width="1196" height="153"/></clipPath></defs><g clip-path="url(#clip0)" transform="translate(-10 -215)"><path d="M36.7299 251.064 52.9545 251.064 52.9545 282.771 81.0048 282.771 81.0048 251.064 97.1723 251.064 97.1723 335.101 81.0048 335.101 81.0048 298.253 52.9545 298.253 52.9545 335.101 36.7299 335.101Z" stroke="#A6A6A6" stroke-linejoin="round" stroke-miterlimit="10" fill="#92D050" fill-rule="evenodd"/><text fill="#000000" fill-opacity="0" font-family="Arial,Arial_MSFontService,sans-serif" font-size="84.0366" x="36.7299" y="324.596">H</text><path d="M141.166 290.222C136.734 290.222 133.045 291.763 130.097 294.845 127.149 297.928 125.675 301.872 125.675 306.679 125.675 311.625 127.131 315.631 130.044 318.696 132.958 321.761 136.647 323.293 141.113 323.293 145.579 323.293 149.295 321.743 152.26 318.643 155.226 315.544 156.709 311.555 156.709 306.679 156.709 301.803 155.252 297.841 152.339 294.793 149.426 291.745 145.701 290.222 141.166 290.222ZM241.688 288.863C237.711 288.863 234.222 289.978 231.222 292.207 229.337 293.6 227.593 296.056 225.988 299.574L256.918 299.574C255.976 296.404 254.118 293.827 251.344 291.841 248.57 289.856 245.352 288.863 241.688 288.863ZM240.983 276.794C249.934 276.794 257.214 279.659 262.822 285.389 268.429 291.118 271.233 298.685 271.233 308.09L271.181 310.807 225.361 310.807C226.023 314.847 227.791 318.06 230.664 320.446 233.538 322.832 237.203 324.025 241.662 324.025 246.991 324.025 251.571 322.161 255.403 318.435L267.419 324.077C264.424 328.326 260.836 331.47 256.656 333.508 252.477 335.545 247.513 336.564 241.766 336.564 232.85 336.564 225.587 333.751 219.98 328.126 214.372 322.501 211.568 315.456 211.568 306.993 211.568 298.32 214.363 291.118 219.954 285.389 225.544 279.659 232.554 276.794 240.983 276.794ZM140.93 276.794C146.294 276.794 151.336 278.135 156.056 280.817 160.775 283.499 164.459 287.139 167.106 291.737 169.753 296.334 171.076 301.298 171.076 306.627 171.076 311.991 169.744 317.006 167.08 321.674 164.415 326.341 160.784 329.99 156.186 332.619 151.589 335.249 146.521 336.564 140.983 336.564 132.832 336.564 125.875 333.664 120.11 327.865 114.346 322.066 111.464 315.021 111.464 306.731 111.464 297.85 114.72 290.448 121.234 284.527 126.946 279.372 133.511 276.794 140.93 276.794ZM183.957 257.307 198.22 257.307 198.22 278.257 206.684 278.257 206.684 290.535 198.22 290.535 198.22 335.101 183.957 335.101 183.957 290.535 176.642 290.535 176.642 278.257 183.957 278.257ZM281.665 256.314 295.928 256.314 295.928 335.101 281.665 335.101Z" stroke="#A6A6A6" stroke-linejoin="round" stroke-miterlimit="10" fill="#92D050" fill-rule="evenodd"/><text fill="#000000" fill-opacity="0" font-family="Arial,Arial_MSFontService,sans-serif" font-size="80.25" x="111.464" y="326.533">otel </text><path d="M356.559 266.489 356.559 319.505 363.986 319.505C371.299 319.505 376.602 318.666 379.896 316.988 383.191 315.311 385.885 312.49 387.98 308.524 390.075 304.559 391.122 299.679 391.122 293.883 391.122 284.962 388.628 278.042 383.638 273.123 379.144 268.701 371.927 266.489 361.987 266.489ZM340.677 251.064 359.628 251.064C371.843 251.064 380.919 252.578 386.855 255.606 392.791 258.634 397.681 263.557 401.525 270.374 405.368 277.191 407.29 285.151 407.29 294.254 407.29 300.728 406.215 306.679 404.065 312.107 401.915 317.534 398.946 322.038 395.16 325.618 391.374 329.198 387.274 331.673 382.86 333.044 378.445 334.415 370.797 335.101 359.914 335.101L340.677 335.101Z" stroke="#A6A6A6" stroke-linejoin="round" stroke-miterlimit="10" fill="#92D050" fill-rule="evenodd"/><text fill="#000000" fill-opacity="0" font-family="Arial,Arial_MSFontService,sans-serif" font-size="84.0366" x="340.677" y="324.596">D</text><path d="M575.359 289.96C570.95 289.96 567.288 291.519 564.372 294.636 561.456 297.754 559.998 301.751 559.998 306.627 559.998 311.538 561.482 315.578 564.45 318.748 567.418 321.918 571.071 323.502 575.411 323.502 579.889 323.502 583.604 321.944 586.554 318.826 589.505 315.709 590.98 311.625 590.98 306.575 590.98 301.629 589.505 297.623 586.554 294.558 583.604 291.493 579.872 289.96 575.359 289.96ZM447.855 288.863C443.877 288.863 440.389 289.978 437.388 292.207 435.504 293.6 433.76 296.056 432.155 299.574L463.084 299.574C462.142 296.404 460.284 293.827 457.511 291.841 454.737 289.856 451.518 288.863 447.855 288.863ZM482.313 278.257 496.844 278.257 511.205 311.799 525.534 278.257 539.992 278.257 515.802 335.101 506.555 335.101ZM572.454 276.794C575.863 276.794 579.063 277.439 582.055 278.727 585.047 280.016 587.813 281.949 590.353 284.527L590.353 278.257 604.616 278.257 604.616 335.101 590.353 335.101 590.353 329.093C587.57 331.74 584.778 333.647 581.977 334.814 579.177 335.98 576.141 336.564 572.871 336.564 565.53 336.564 559.181 333.716 553.823 328.022 548.466 322.327 545.787 315.247 545.787 306.784 545.787 298.006 548.379 290.814 553.563 285.206 558.746 279.598 565.044 276.794 572.454 276.794ZM447.149 276.794C456.101 276.794 463.38 279.659 468.988 285.389 474.596 291.118 477.4 298.685 477.4 308.09L477.348 310.807 431.528 310.807C432.19 314.847 433.957 318.06 436.831 320.446 439.704 322.832 443.37 324.025 447.829 324.025 453.158 324.025 457.738 322.161 461.569 318.435L473.586 324.077C470.59 328.326 467.003 331.47 462.823 333.508 458.643 335.545 453.68 336.564 447.933 336.564 439.016 336.564 431.754 333.751 426.146 328.126 420.539 322.501 417.735 315.456 417.735 306.993 417.735 298.32 420.53 291.118 426.12 285.389 431.711 279.659 438.72 276.794 447.149 276.794Z" stroke="#A6A6A6" stroke-linejoin="round" stroke-miterlimit="10" fill="#92D050" fill-rule="evenodd"/><text fill="#000000" fill-opacity="0" font-family="Arial,Arial_MSFontService,sans-serif" font-size="59.7695" x="417.735" y="329.093">eva </text><path d="M644.75 251.064 661.196 251.064 682.341 310.764 703.792 251.064 720.218 251.064 689.939 335.101 674.515 335.101Z" stroke="#A6A6A6" stroke-linejoin="round" stroke-miterlimit="10" fill="#92D050" fill-rule="evenodd"/><text fill="#000000" fill-opacity="0" font-family="Arial,Arial_MSFontService,sans-serif" font-size="84.0366" x="644.75" y="324.596">V</text><path d="M784.355 288.863C780.377 288.863 776.889 289.978 773.888 292.207 772.004 293.6 770.26 296.056 768.655 299.574L799.584 299.574C798.642 296.404 796.784 293.827 794.011 291.841 791.237 289.856 788.018 288.863 784.355 288.863ZM818.604 278.257 832.565 278.257 843.995 310.598 856.293 278.257 864.833 278.257 876.91 310.232 888.355 278.257 902.406 278.257 881.665 335.101 872.626 335.101 860.505 302.708 848.018 335.101 839.084 335.101ZM729.332 278.257 743.595 278.257 743.595 335.101 729.332 335.101ZM783.649 276.794C792.601 276.794 799.88 279.659 805.488 285.389 811.096 291.118 813.9 298.685 813.9 308.09L813.848 310.807 768.028 310.807C768.69 314.847 770.457 318.06 773.331 320.446 776.204 322.832 779.87 324.025 784.328 324.025 789.658 324.025 794.238 322.161 798.069 318.435L810.086 324.077C807.09 328.326 803.503 331.47 799.323 333.508 795.143 335.545 790.18 336.564 784.433 336.564 775.516 336.564 768.254 333.751 762.646 328.126 757.039 322.501 754.235 315.456 754.235 306.993 754.235 298.32 757.03 291.118 762.62 285.389 768.211 279.659 775.22 276.794 783.649 276.794ZM736.464 254.851C738.964 254.851 741.109 255.757 742.898 257.568 744.686 259.379 745.58 261.573 745.58 264.151 745.58 266.693 744.695 268.862 742.924 270.655 741.152 272.449 739.034 273.346 736.568 273.346 734.032 273.346 731.87 272.432 730.082 270.603 728.293 268.775 727.399 266.554 727.399 263.942 727.399 261.434 728.284 259.292 730.056 257.516 731.827 255.739 733.963 254.851 736.464 254.851Z" stroke="#A6A6A6" stroke-linejoin="round" stroke-miterlimit="10" fill="#92D050" fill-rule="evenodd"/><text fill="#000000" fill-opacity="0" font-family="Arial,Arial_MSFontService,sans-serif" font-size="81.7129" x="727.399" y="326.35">iew </text><path d="M958.226 266.661 958.226 283.914 963.31 283.914C967.31 283.914 970.09 283.627 971.651 283.054 973.213 282.481 974.441 281.535 975.336 280.217 976.231 278.898 976.679 277.303 976.679 275.431 976.679 272.182 975.422 269.813 972.908 268.323 971.08 267.215 967.69 266.661 962.739 266.661ZM942.23 251.064 959.197 251.064C968.376 251.064 974.993 251.912 979.049 253.607 983.106 255.301 986.305 258.044 988.647 261.833 990.989 265.623 992.161 270.164 992.161 275.458 992.161 281.324 990.628 286.199 987.562 290.083 984.496 293.968 980.335 296.672 975.079 298.196 971.994 299.072 966.376 299.51 958.226 299.51L958.226 335.101 942.23 335.101Z" stroke="#A6A6A6" stroke-linejoin="round" stroke-miterlimit="10" fill="#92D050" fill-rule="evenodd"/><text fill="#000000" fill-opacity="0" font-family="Arial,Arial_MSFontService,sans-serif" font-size="84.0366" x="942.23" y="324.596">P</text><path d="M1032.5 290.222C1028.07 290.222 1024.38 291.763 1021.43 294.845 1018.48 297.928 1017.01 301.872 1017.01 306.679 1017.01 311.625 1018.46 315.631 1021.38 318.696 1024.29 321.761 1027.98 323.293 1032.45 323.293 1036.91 323.293 1040.63 321.743 1043.59 318.643 1046.56 315.544 1048.04 311.555 1048.04 306.679 1048.04 301.803 1046.59 297.841 1043.67 294.793 1040.76 291.745 1037.03 290.222 1032.5 290.222ZM1072 278.257 1086.26 278.257 1086.26 335.101 1072 335.101ZM1130.68 276.794C1136.31 276.794 1141.1 278.762 1145.03 282.698 1148.33 286.042 1149.98 290.988 1149.98 297.536L1149.98 335.101 1135.88 335.101 1135.88 310.208C1135.88 303.424 1135.57 298.919 1134.96 296.692 1134.36 294.466 1133.3 292.77 1131.79 291.604 1130.27 290.439 1128.41 289.856 1126.18 289.856 1123.3 289.856 1120.82 290.821 1118.76 292.752 1116.69 294.683 1115.25 297.353 1114.45 300.763 1114.04 302.537 1113.83 306.381 1113.83 312.296L1113.83 335.101 1099.57 335.101 1099.57 278.257 1113.83 278.257 1113.83 284.083C1117.06 281.356 1119.99 279.46 1122.62 278.394 1125.25 277.327 1127.93 276.794 1130.68 276.794ZM1032.26 276.794C1037.63 276.794 1042.67 278.135 1047.39 280.817 1052.11 283.499 1055.79 287.139 1058.44 291.737 1061.09 296.334 1062.41 301.298 1062.41 306.627 1062.41 311.991 1061.08 317.006 1058.41 321.674 1055.75 326.341 1052.12 329.99 1047.52 332.619 1042.92 335.249 1037.85 336.564 1032.32 336.564 1024.17 336.564 1017.21 333.664 1011.44 327.865 1005.68 322.066 1002.8 315.021 1002.8 306.731 1002.8 297.85 1006.05 290.448 1012.57 284.527 1018.28 279.372 1024.84 276.794 1032.26 276.794ZM1165.29 257.307 1179.55 257.307 1179.55 278.257 1188.02 278.257 1188.02 290.535 1179.55 290.535 1179.55 335.101 1165.29 335.101 1165.29 290.535 1157.98 290.535 1157.98 278.257 1165.29 278.257ZM1079.13 254.851C1081.63 254.851 1083.78 255.757 1085.56 257.568 1087.35 259.379 1088.25 261.573 1088.25 264.151 1088.25 266.693 1087.36 268.862 1085.59 270.655 1083.82 272.449 1081.7 273.346 1079.23 273.346 1076.7 273.346 1074.54 272.432 1072.75 270.603 1070.96 268.775 1070.07 266.554 1070.07 263.942 1070.07 261.434 1070.95 259.292 1072.72 257.516 1074.49 255.739 1076.63 254.851 1079.13 254.851Z" stroke="#A6A6A6" stroke-linejoin="round" stroke-miterlimit="10" fill="#92D050" fill-rule="evenodd"/><text fill="#000000" fill-opacity="0" font-family="Arial,Arial_MSFontService,sans-serif" font-size="81.7129" x="1002.8" y="326.35">oint</text></g></svg>